<svg version="1.1" id="Layer_1" xmlns="http://www.w3.org/2000/svg" xmlns:xlink="http://www.w3.org/1999/xlink" x="0px" y="0px"
	 width="100%" viewBox="0 0 4435 3870" enable-background="new 0 0 4435 3870" xml:space="preserve">
<path fill="#000000" opacity="1.000000" stroke="none" 
	d="
M3020.000000,3876.000000 
	C2013.454102,3876.000000 1008.908142,3876.000000 4.181086,3876.000000 
	C4.181086,2585.609131 4.181086,1295.218262 4.181086,4.413721 
	C1482.213135,4.413721 2960.426270,4.413721 4439.319824,4.413721 
	C4439.319824,1294.666382 4439.319824,2585.333252 4439.319824,3876.000000 
	C3967.217529,3876.000000 3494.608643,3876.000000 3020.000000,3876.000000 
M2496.940430,2148.258057 
	C2496.940430,2046.160889 2496.940430,1944.063721 2496.940430,1841.251465 
	C2476.629150,1830.626465 2457.112549,1819.663086 2434.207520,1809.470825 
	C2428.364990,1807.114990 2422.335938,1805.133545 2416.715576,1802.332397 
	C2400.365234,1794.183838 2384.178955,1785.707153 2365.531250,1775.780029 
	C2347.784668,1766.797852 2330.057617,1757.776855 2312.284912,1748.846436 
	C2299.841797,1742.593994 2287.253418,1736.625488 2274.898682,1730.205444 
	C2269.742676,1727.526245 2265.005127,1727.010132 2259.825928,1729.808716 
	C2246.483154,1737.018555 2233.075684,1744.108276 2216.828613,1751.708740 
	C2132.259766,1791.751587 2050.676025,1833.158203 2036.872803,1843.304810 
	C2037.377930,1855.021729 2037.918335,1867.559937 2037.471558,1883.713989 
	C2037.399170,1935.187012 2037.304443,1986.659912 2037.306274,2038.132935 
	C2037.306396,2041.386719 2038.059448,2044.640625 2037.438110,2051.514648 
	C2037.778809,2070.348145 2038.119507,2089.181885 2037.442871,2111.593994 
	C2037.777832,2127.696533 2038.112671,2143.799072 2037.449951,2163.437256 
	C2037.791138,2175.633057 2038.132324,2187.828857 2037.464478,2203.624268 
	C2037.744629,2222.345703 2038.024780,2241.067139 2037.315552,2263.092285 
	C2037.341431,2269.451172 2035.705566,2276.007568 2039.616821,2283.011963 
	C2051.676514,2284.271973 2063.869141,2284.261963 2079.799316,2283.549316 
	C2165.208496,2283.587158 2250.617676,2283.634521 2336.026855,2283.635254 
	C2339.985352,2283.635254 2343.943604,2283.218018 2351.609375,2283.679199 
	C2399.314941,2283.679199 2447.020264,2283.679199 2494.132812,2283.679199 
	C2498.543457,2276.477051 2497.203613,2269.718750 2497.235596,2263.240234 
	C2497.392822,2231.401123 2497.405273,2199.560791 2497.327637,2167.721680 
	C2497.314697,2162.459961 2496.602539,2157.199951 2496.940430,2148.258057 
M2192.783691,485.584625 
	C2168.722656,489.668701 2147.225830,499.454651 2127.106934,513.265991 
	C1966.164551,623.752197 1805.066772,734.012390 1644.005981,844.326050 
	C1481.846436,955.392334 1319.676392,1066.443115 1157.507568,1177.495850 
	C1103.084106,1214.765015 1048.540039,1251.859253 994.256775,1289.331177 
	C951.266602,1319.007568 928.318481,1359.659912 928.320251,1412.515259 
	C928.334961,1850.471802 928.513367,2288.428711 928.117126,2726.384766 
	C928.062134,2787.224365 969.609131,2847.128174 1032.256836,2864.679443 
	C1049.735474,2869.576172 1067.575806,2870.833740 1085.632690,2870.831543 
	C1488.259521,2870.786377 1890.886353,2870.796875 2293.513184,2870.795410 
	C2298.845947,2870.795410 2304.187500,2870.955322 2309.508057,2870.696289 
	C2312.512695,2870.549805 2315.483154,2869.699951 2318.889404,2869.091553 
	C2310.927979,2853.165039 1974.553955,2371.077393 1961.734253,2357.229248 
	C1954.941528,2357.229248 1947.004639,2357.229248 1939.067871,2357.229004 
	C1783.083252,2357.227295 1627.098755,2357.226074 1471.114136,2357.222656 
	C1465.114746,2357.222412 1459.107056,2357.386719 1453.119141,2357.117188 
	C1449.352295,2356.947998 1445.615234,2356.111084 1442.263550,2355.630859 
	C1439.795410,2337.399902 1439.622803,1663.730957 1442.019775,1643.919922 
	C1698.663696,1474.223389 1955.911133,1304.127808 2212.517822,1134.455811 
	C2228.643555,1142.174683 2974.059082,1635.081177 2987.661865,1646.910522 
	C2987.661865,1653.660156 2987.662109,1660.978882 2987.662109,1668.297607 
	C2987.661377,1881.609741 2987.660645,2094.921875 2987.658691,2308.234131 
	C2987.658691,2312.900391 2987.879150,2317.583008 2987.556641,2322.227539 
	C2987.297363,2325.960205 2986.369873,2329.646729 2985.571289,2334.339111 
	C2976.556641,2334.509521 2968.651123,2334.787109 2960.745361,2334.789062 
	C2840.757324,2334.816895 2720.769043,2334.806641 2600.781006,2334.814453 
	C2594.782471,2334.814941 2588.759766,2334.563721 2582.789795,2334.998779 
	C2564.932617,2336.301025 2552.309814,2349.542480 2550.812500,2367.335205 
	C2549.567627,2382.127197 2556.737793,2392.369141 2566.638916,2402.254639 
	C2719.010742,2554.379639 2871.253662,2706.633789 3023.341553,2859.042969 
	C3031.365479,2867.083740 3039.499756,2871.083008 3051.245850,2871.038086 
	C3159.233398,2870.625488 3267.224365,2870.980225 3375.211914,2870.561523 
	C3389.053711,2870.507812 3403.234375,2868.709229 3416.658447,2865.333252 
	C3480.198975,2849.354248 3524.366943,2789.743652 3523.875244,2725.502930 
	C3523.114990,2626.185303 3523.672607,2526.857422 3523.672607,2427.533936 
	C3523.672607,2090.233887 3523.686768,1752.933960 3523.603027,1415.634033 
	C3523.600830,1406.345947 3523.428467,1396.903564 3521.831543,1387.796875 
	C3514.686768,1347.063232 3494.090332,1314.815186 3459.619385,1291.621948 
	C3435.297607,1275.257324 3411.074463,1258.746216 3386.748291,1242.387939 
	C3205.952881,1120.809082 3025.148193,999.243774 2844.335693,877.690308 
	C2663.520996,756.135681 2482.585693,634.760132 2301.972900,512.906311 
	C2269.650635,491.099365 2235.054443,480.851562 2192.783691,485.584625 
M1889.083740,2947.679932 
	C1865.295410,2948.020508 1841.466064,2946.962646 1816.468018,2948.345459 
	C1816.141357,2955.477051 1815.767944,2961.296143 1815.637695,2967.121094 
	C1815.503662,2973.111572 1815.606567,2979.107422 1815.606934,2985.101074 
	C1815.607422,2991.094482 1815.609863,2997.088135 1815.610352,3003.081543 
	C1815.610840,3009.074951 1815.609497,3015.068604 1815.609619,3021.062012 
	C1815.609863,3027.721436 1815.611084,3034.380859 1815.611450,3041.040283 
	C1815.611694,3047.033936 1815.611084,3053.027344 1815.610840,3059.020996 
	C1815.610718,3065.014404 1815.610840,3071.008057 1815.610352,3077.001465 
	C1815.609863,3082.994873 1815.752441,3088.992920 1815.566772,3094.980713 
	C1815.391113,3100.647705 1816.492554,3106.533691 1813.595215,3114.250977 
	C1808.893066,3108.998535 1805.291138,3105.419189 1802.192993,3101.446777 
	C1765.749268,3054.720215 1729.397461,3007.922119 1692.967041,2961.185303 
	C1689.352539,2956.548096 1685.378662,2952.190918 1681.684937,2947.837402 
	C1655.549561,2947.837402 1630.260742,2947.804688 1604.972534,2947.904541 
	C1603.115845,2947.911865 1601.262695,2948.875488 1599.001221,2949.508057 
	C1595.768433,2956.477051 1597.209717,2963.906738 1597.198486,2971.057861 
	C1597.076050,3048.973389 1597.122192,3126.888916 1597.124634,3204.804443 
	C1597.125244,3223.450928 1596.987427,3242.099365 1597.246460,3260.742432 
	C1597.307007,3265.107178 1598.722900,3269.453369 1599.446045,3273.427246 
	C1626.558228,3276.278564 1672.636108,3275.473633 1687.292480,3271.716309 
	C1687.430664,3264.282227 1687.635132,3256.414795 1687.706787,3248.545898 
	C1687.779541,3240.555176 1687.720947,3232.563477 1687.721069,3224.572021 
	C1687.721313,3216.580566 1687.722778,3208.589355 1687.723999,3200.597900 
	C1687.725464,3191.940674 1687.728271,3183.283447 1687.728516,3174.626221 
	C1687.728882,3166.634766 1687.726807,3158.643555 1687.725220,3150.652100 
	C1687.723633,3142.660645 1687.570679,3134.665771 1687.762451,3126.678955 
	C1687.945801,3119.043457 1686.816284,3111.231445 1689.474365,3101.139404 
	C1694.517090,3106.897461 1698.046997,3110.555176 1701.159424,3114.539062 
	C1736.411377,3159.661865 1771.595825,3204.837891 1806.808838,3249.991211 
	C1811.721558,3256.290527 1816.730347,3262.515381 1821.617310,3268.834229 
	C1824.670532,3272.781982 1828.491699,3274.876465 1833.579956,3274.812256 
	C1856.195923,3274.526123 1878.813477,3274.352051 1901.428223,3274.005615 
	C1902.531372,3273.989014 1903.615356,3272.723633 1904.706299,3272.036621 
	C1907.942505,3254.507080 1909.161621,3078.859375 1906.793457,2960.894287 
	C1906.716431,2957.060547 1905.874390,2953.241943 1905.313599,2948.821289 
	C1900.596680,2948.391113 1896.726440,2948.038086 1889.083740,2947.679932 
M2121.135254,2952.195557 
	C2103.386475,2949.558350 2085.685059,2945.111816 2067.879395,2944.644531 
	C2025.277588,2943.527588 1982.626587,2944.223633 1939.996094,2944.390869 
	C1936.319458,2944.405518 1932.648560,2945.925537 1928.294922,2946.898193 
	C1928.294922,2954.480957 1928.294800,2961.117920 1928.295044,2967.755127 
	C1928.296387,3007.055664 1928.298584,3046.356445 1928.298584,3085.656982 
	C1928.298584,3142.276367 1928.229126,3198.896240 1928.389160,3255.515137 
	C1928.407227,3261.902588 1926.365234,3268.850586 1932.313843,3275.740479 
	C1937.401001,3275.740479 1943.330566,3275.740479 1949.260010,3275.740479 
	C1986.562256,3275.740234 2023.864624,3275.682373 2061.166748,3275.760498 
	C2086.042480,3275.812500 2110.283447,3271.765869 2133.669922,3263.568604 
	C2181.560303,3246.783447 2216.353760,3215.878662 2233.512695,3167.297607 
	C2243.662598,3138.561279 2245.875244,3109.011475 2240.759521,3078.748779 
	C2232.295166,3028.678467 2205.989746,2991.579834 2161.204834,2967.981689 
	C2149.514648,2961.821777 2136.648682,2957.894287 2121.135254,2952.195557 
M3429.999512,3145.213623 
	C3454.404785,3144.566162 3478.905273,3146.631836 3502.981201,3143.936523 
	C3506.380859,3123.461670 3506.030762,3088.498047 3502.146484,3072.596436 
	C3490.043213,3072.487305 3477.517822,3072.330078 3464.991699,3072.273926 
	C3452.335938,3072.217285 3439.679932,3072.260254 3427.023926,3072.260254 
	C3413.701904,3072.260254 3400.377930,3072.406494 3387.058350,3072.219238 
	C3374.586670,3072.043945 3362.029297,3073.064697 3348.387695,3071.343750 
	C3347.363770,3055.132568 3347.320312,3040.188232 3348.433838,3023.949463 
	C3356.126953,3023.532959 3362.596191,3022.891846 3369.066406,3022.878662 
	C3413.695068,3022.788086 3458.324219,3022.902100 3502.952393,3022.735840 
	C3508.648926,3022.714600 3514.999023,3024.600830 3519.708496,3019.499512 
	C3522.303711,2998.317627 3521.826660,2960.621338 3518.577148,2945.208252 
	C3515.731445,2944.922607 3512.538330,2944.324219 3509.344727,2944.322266 
	C3428.746582,2944.270752 3348.148438,2944.252686 3267.550537,2944.376465 
	C3263.841553,2944.382080 3260.134766,2945.760742 3255.633545,2946.657959 
	C3255.633545,2953.528320 3255.633545,2959.493408 3255.633301,2965.458496 
	C3255.633301,2982.777100 3255.632568,3000.095703 3255.632568,3017.414307 
	C3255.632324,3096.014160 3255.584961,3174.614258 3255.714111,3253.213867 
	C3255.725586,3260.276367 3254.204590,3267.711426 3258.429932,3275.706299 
	C3343.059082,3275.706299 3427.542969,3275.717285 3512.027100,3275.663330 
	C3515.200195,3275.661133 3518.372559,3275.025879 3522.661621,3274.565918 
	C3524.636963,3261.269043 3523.875732,3248.678467 3523.539551,3236.233398 
	C3523.188477,3223.246582 3526.129150,3209.897461 3520.809082,3196.263916 
	C3509.072021,3196.263916 3497.790771,3196.264404 3486.509521,3196.263672 
	C3475.185791,3196.263184 3463.862061,3196.261230 3452.538330,3196.260498 
	C3440.548584,3196.260010 3428.558594,3196.260010 3416.568848,3196.260254 
	C3405.245117,3196.260254 3393.916260,3196.474121 3382.599121,3196.199951 
	C3371.497314,3195.930908 3360.232910,3197.487305 3348.406982,3194.747803 
	C3347.737793,3178.163574 3346.503662,3162.576660 3349.305420,3145.724609 
	C3375.614258,3144.711670 3400.819580,3145.440186 3429.999512,3145.213623 
M2267.029541,3138.545898 
	C2276.234131,3192.104980 2305.496826,3231.247559 2353.173340,3256.468018 
	C2379.484619,3270.386719 2407.907471,3275.834717 2437.822510,3275.930420 
	C2513.212158,3276.172119 2595.378906,3224.583252 2605.811768,3128.114014 
	C2611.756836,3073.139160 2594.635254,3025.340820 2552.705078,2988.299805 
	C2511.822021,2952.184326 2463.392822,2940.384277 2409.769531,2947.451660 
	C2311.425293,2960.413086 2252.514160,3049.835938 2267.029541,3138.545898 
M1552.685181,3277.252441 
	C1559.158447,3276.924561 1565.631714,3276.596436 1574.443237,3276.149658 
	C1565.784668,3251.906494 1555.548584,3230.484863 1546.612305,3208.579590 
	C1537.565674,3186.404053 1528.051880,3164.418701 1518.739258,3142.351562 
	C1509.429932,3120.291504 1500.121094,3098.231201 1490.803589,3076.174561 
	C1481.484863,3054.115479 1472.406982,3031.950195 1462.760498,3010.035400 
	C1453.179565,2988.269531 1445.255127,2965.732910 1434.201904,2945.228271 
	C1402.881226,2943.106689 1360.219971,2943.708252 1344.487183,2946.623535 
	C1299.182007,3054.473877 1253.590210,3162.992432 1208.089478,3271.549316 
	C1207.702759,3272.471436 1208.544312,3273.908447 1208.819092,3275.103760 
	C1224.932983,3277.913574 1284.174438,3278.115479 1302.714111,3275.259766 
	C1311.302612,3257.442871 1316.732422,3237.501709 1326.176636,3219.549805 
	C1368.718384,3219.549805 1409.872681,3219.549805 1451.161743,3219.549805 
	C1462.404663,3237.489746 1466.191406,3258.322021 1477.529785,3277.078857 
	C1501.203857,3277.419189 1525.083740,3277.186035 1552.685181,3277.252441 
M2931.701416,3117.821289 
	C2931.701904,3098.498047 2931.702637,3079.175049 2931.702393,3059.851807 
	C2931.702148,3041.195068 2931.843018,3022.536621 2931.659424,3003.881836 
	C2931.471191,2984.743408 2932.507080,2965.549072 2930.983643,2946.796143 
	C2911.092285,2943.025879 2854.369385,2943.423096 2839.642822,2947.524170 
	C2839.642822,2954.372070 2839.642822,2961.617188 2839.642822,2968.862549 
	C2839.642822,3020.168701 2839.655762,3071.475098 2839.624268,3122.781250 
	C2839.620605,3128.773193 2839.934082,3134.842773 2839.124512,3140.742188 
	C2837.001465,3156.218750 2832.209229,3170.604004 2819.837646,3181.283447 
	C2794.831299,3202.869873 2733.822754,3202.163086 2723.806396,3149.188477 
	C2721.472656,3136.846436 2720.613037,3124.072754 2720.517822,3111.486816 
	C2720.150879,3062.848877 2720.405029,3014.206055 2720.322021,2965.565186 
	C2720.311035,2959.094482 2719.695068,2952.624512 2719.301270,2945.034180 
	C2703.598633,2943.700439 2689.041016,2944.042969 2674.554443,2944.392334 
	C2659.545898,2944.754395 2644.286865,2942.204102 2629.101074,2946.525635 
	C2628.800781,2951.330566 2628.343994,2955.265625 2628.340820,2959.201172 
	C2628.296631,3017.170654 2627.954102,3075.143799 2628.566162,3133.106689 
	C2628.719238,3147.635010 2630.742676,3162.420410 2634.047852,3176.588135 
	C2645.536377,3225.833008 2676.314697,3257.049561 2725.236572,3269.806885 
	C2760.701904,3279.055420 2796.591064,3279.050049 2832.036865,3270.342285 
	C2886.124023,3257.055420 2917.616699,3221.901123 2928.216064,3167.460449 
	C2931.164307,3152.317383 2932.125977,3137.104492 2931.701416,3117.821289 
M2978.647949,3192.644287 
	C2970.719727,3202.325684 2962.791748,3212.007324 2954.231201,3222.460938 
	C2959.727783,3227.179199 2963.913574,3231.425781 2968.715820,3234.792969 
	C3017.283691,3268.850830 3071.637207,3280.128174 3129.898438,3274.501953 
	C3147.139648,3272.836914 3163.908936,3268.226318 3179.551270,3260.276367 
	C3204.526611,3247.582764 3221.854980,3228.372070 3229.980957,3201.303223 
	C3234.277832,3186.989502 3233.837402,3172.273438 3232.812012,3157.666016 
	C3231.441650,3138.150146 3222.986816,3121.593262 3208.053711,3109.175537 
	C3199.447266,3102.018799 3189.724854,3095.686768 3179.562744,3091.046875 
	C3166.320801,3085.001221 3152.329834,3080.367676 3138.323486,3076.285645 
	C3121.735107,3071.451416 3104.656250,3068.304199 3088.053223,3063.513916 
	C3080.536865,3061.345215 3073.389404,3057.431396 3066.576904,3053.449707 
	C3061.793457,3050.653809 3059.752686,3045.610840 3059.761719,3039.780273 
	C3059.773438,3032.300049 3063.273193,3027.353271 3069.564697,3023.672363 
	C3077.462158,3019.052002 3086.095703,3018.772217 3094.739502,3019.017090 
	C3119.245605,3019.711426 3141.713135,3027.459717 3162.920410,3039.362305 
	C3168.605225,3042.552979 3174.398438,3045.550537 3179.883301,3048.497559 
	C3195.556885,3031.676270 3218.355957,2998.507568 3223.050537,2985.791748 
	C3221.169434,2984.168701 3219.313721,2982.237549 3217.152344,2980.750977 
	C3165.903809,2945.501221 3109.298584,2936.205078 3049.477539,2949.458984 
	C3003.204590,2959.711670 2974.735596,2991.642578 2969.349609,3035.631592 
	C2964.527100,3075.015625 2979.759033,3105.433594 3014.079834,3123.794678 
	C3031.802734,3133.275879 3050.793457,3139.288574 3070.197266,3144.178467 
	C3085.673828,3148.078369 3101.203857,3151.810303 3116.529297,3156.242676 
	C3122.833252,3158.065674 3129.196533,3160.741943 3134.601074,3164.404785 
	C3146.903564,3172.742920 3146.169434,3187.485596 3133.713135,3195.684814 
	C3127.290039,3199.912842 3120.056885,3200.749023 3112.703125,3201.077393 
	C3079.698975,3202.552246 3049.537354,3193.664795 3021.823486,3175.961914 
	C3015.775879,3172.098877 3009.738525,3168.219727 3003.156494,3164.001953 
	C2995.120361,3173.342773 2987.773926,3181.882080 2978.647949,3192.644287 
M928.315491,3233.892822 
	C928.917603,3247.672607 926.856506,3261.615723 929.752502,3274.998535 
	C947.728577,3278.080078 1098.310303,3279.346924 1170.309692,3277.129639 
	C1174.127075,3277.011963 1177.923950,3276.229736 1181.380371,3275.800293 
	C1184.531860,3257.754395 1184.471069,3213.965576 1181.246582,3196.564209 
	C1175.067139,3196.289551 1168.567261,3195.762451 1162.066284,3195.750244 
	C1120.748413,3195.673096 1079.430054,3195.756592 1038.112183,3195.647949 
	C1033.044067,3195.634766 1027.978027,3194.793701 1021.925293,3194.247314 
	C1021.664124,3185.729004 1021.255737,3178.509277 1021.250488,3171.289307 
	C1021.200500,3102.647949 1021.284851,3034.006348 1021.118103,2965.365479 
	C1021.100952,2958.312744 1022.939758,2950.791992 1018.055603,2943.126221 
	C1003.625549,2943.021729 989.047607,2942.516113 974.495056,2942.922119 
	C959.524170,2943.339600 944.274170,2940.748291 928.315857,2945.302979 
	C928.315857,3040.838135 928.315857,3135.377441 928.315491,3233.892822 
z"/>
<path fill="#008CDD" opacity="1.000000" stroke="none" 
	d="
M2194.524414,485.297729 
	C2235.054443,480.851562 2269.650635,491.099365 2301.972900,512.906311 
	C2482.585693,634.760132 2663.520996,756.135681 2844.335693,877.690308 
	C3025.148193,999.243774 3205.952881,1120.809082 3386.748291,1242.387939 
	C3411.074463,1258.746216 3435.297607,1275.257324 3459.619385,1291.621948 
	C3494.090332,1314.815186 3514.686768,1347.063232 3521.831543,1387.796875 
	C3523.428467,1396.903564 3523.600830,1406.345947 3523.603027,1415.634033 
	C3523.686768,1752.933960 3523.672607,2090.233887 3523.672607,2427.533936 
	C3523.672607,2526.857422 3523.114990,2626.185303 3523.875244,2725.502930 
	C3524.366943,2789.743652 3480.198975,2849.354248 3416.658447,2865.333252 
	C3403.234375,2868.709229 3389.053711,2870.507812 3375.211914,2870.561523 
	C3267.224365,2870.980225 3159.233398,2870.625488 3051.245850,2871.038086 
	C3039.499756,2871.083008 3031.365479,2867.083740 3023.341553,2859.042969 
	C2871.253662,2706.633789 2719.010742,2554.379639 2566.638916,2402.254639 
	C2556.737793,2392.369141 2549.567627,2382.127197 2550.812500,2367.335205 
	C2552.309814,2349.542480 2564.932617,2336.301025 2582.789795,2334.998779 
	C2588.759766,2334.563721 2594.782471,2334.814941 2600.781006,2334.814453 
	C2720.769043,2334.806641 2840.757324,2334.816895 2960.745361,2334.789062 
	C2968.651123,2334.787109 2976.556641,2334.509521 2985.571289,2334.339111 
	C2986.369873,2329.646729 2987.297363,2325.960205 2987.556641,2322.227539 
	C2987.879150,2317.583008 2987.658691,2312.900391 2987.658691,2308.234131 
	C2987.660645,2094.921875 2987.661377,1881.609741 2987.662109,1668.297607 
	C2987.662109,1660.978882 2987.661865,1653.660156 2987.661865,1646.910522 
	C2974.059082,1635.081177 2228.643555,1142.174683 2212.517822,1134.455811 
	C1955.911133,1304.127808 1698.663696,1474.223389 1442.019775,1643.919922 
	C1439.622803,1663.730957 1439.795410,2337.399902 1442.263550,2355.630859 
	C1445.615234,2356.111084 1449.352295,2356.947998 1453.119141,2357.117188 
	C1459.107056,2357.386719 1465.114746,2357.222412 1471.114136,2357.222656 
	C1627.098755,2357.226074 1783.083252,2357.227295 1939.067871,2357.229004 
	C1947.004639,2357.229248 1954.941528,2357.229248 1961.734253,2357.229248 
	C1974.553955,2371.077393 2310.927979,2853.165039 2318.889404,2869.091553 
	C2315.483154,2869.699951 2312.512695,2870.549805 2309.508057,2870.696289 
	C2304.187500,2870.955322 2298.845947,2870.795410 2293.513184,2870.795410 
	C1890.886353,2870.796875 1488.259521,2870.786377 1085.632690,2870.831543 
	C1067.575806,2870.833740 1049.735474,2869.576172 1032.256836,2864.679443 
	C969.609131,2847.128174 928.062134,2787.224365 928.117126,2726.384766 
	C928.513367,2288.428711 928.334961,1850.471802 928.320251,1412.515259 
	C928.318481,1359.659912 951.266602,1319.007568 994.256775,1289.331177 
	C1048.540039,1251.859253 1103.084106,1214.765015 1157.507568,1177.495850 
	C1319.676392,1066.443115 1481.846436,955.392334 1644.005981,844.326050 
	C1805.066772,734.012390 1966.164551,623.752197 2127.106934,513.265991 
	C2147.225830,499.454651 2168.722656,489.668701 2194.524414,485.297729 
z"/>
<path fill="#0089D9" opacity="1.000000" stroke="none" 
	d="
M1890.969971,2947.682617 
	C1896.726440,2948.038086 1900.596680,2948.391113 1905.313599,2948.821289 
	C1905.874390,2953.241943 1906.716431,2957.060547 1906.793457,2960.894287 
	C1909.161621,3078.859375 1907.942505,3254.507080 1904.707275,3272.038086 
	C1903.615356,3272.723633 1902.531372,3273.989014 1901.428223,3274.005615 
	C1878.813477,3274.352051 1856.195923,3274.526123 1833.579956,3274.812256 
	C1828.491699,3274.876465 1824.670532,3272.781982 1821.617310,3268.834229 
	C1816.730347,3262.515381 1811.721558,3256.290527 1806.808838,3249.991211 
	C1771.595825,3204.837891 1736.411377,3159.661865 1701.159424,3114.539062 
	C1698.046997,3110.555176 1694.517090,3106.897461 1689.474365,3101.139404 
	C1686.816284,3111.231445 1687.945801,3119.043457 1687.762451,3126.678955 
	C1687.570679,3134.665771 1687.723633,3142.660645 1687.725220,3150.652100 
	C1687.726807,3158.643555 1687.728882,3166.634766 1687.728516,3174.626221 
	C1687.728271,3183.283447 1687.725464,3191.940674 1687.723999,3200.597900 
	C1687.722778,3208.589355 1687.721313,3216.580566 1687.721069,3224.572021 
	C1687.720947,3232.563477 1687.779541,3240.555176 1687.706787,3248.545898 
	C1687.635132,3256.414795 1687.430664,3264.282227 1687.292480,3271.716309 
	C1672.636108,3275.473633 1626.558228,3276.278564 1599.446045,3273.427246 
	C1598.722900,3269.453369 1597.307007,3265.107178 1597.246460,3260.742432 
	C1596.987427,3242.099365 1597.125244,3223.450928 1597.124634,3204.804443 
	C1597.122192,3126.888916 1597.076050,3048.973389 1597.198486,2971.057861 
	C1597.209717,2963.906738 1595.768433,2956.477051 1599.001221,2949.508057 
	C1601.262695,2948.875488 1603.115845,2947.911865 1604.972534,2947.904541 
	C1630.260742,2947.804688 1655.549561,2947.837402 1681.684937,2947.837402 
	C1685.378662,2952.190918 1689.352539,2956.548096 1692.967041,2961.185303 
	C1729.397461,3007.922119 1765.749268,3054.720215 1802.192993,3101.446777 
	C1805.291138,3105.419189 1808.893066,3108.998535 1813.595215,3114.250977 
	C1816.492554,3106.533691 1815.391113,3100.647705 1815.566772,3094.980713 
	C1815.752441,3088.992920 1815.609863,3082.994873 1815.610352,3077.001465 
	C1815.610840,3071.008057 1815.610718,3065.014404 1815.610840,3059.020996 
	C1815.611084,3053.027344 1815.611694,3047.033936 1815.611450,3041.040283 
	C1815.611084,3034.380859 1815.609863,3027.721436 1815.609619,3021.062012 
	C1815.609497,3015.068604 1815.610840,3009.074951 1815.610352,3003.081543 
	C1815.609863,2997.088135 1815.607422,2991.094482 1815.606934,2985.101074 
	C1815.606567,2979.107422 1815.503662,2973.111572 1815.637695,2967.121094 
	C1815.767944,2961.296143 1816.141357,2955.477051 1816.468018,2948.345459 
	C1841.466064,2946.962646 1865.295410,2948.020508 1890.969971,2947.682617 
z"/>
<path fill="#008ADB" opacity="1.000000" stroke="none" 
	d="
M2122.729004,2952.568604 
	C2136.648682,2957.894287 2149.514648,2961.821777 2161.204834,2967.981689 
	C2205.989746,2991.579834 2232.295166,3028.678467 2240.759521,3078.748779 
	C2245.875244,3109.011475 2243.662598,3138.561279 2233.512695,3167.297607 
	C2216.353760,3215.878662 2181.560303,3246.783447 2133.669922,3263.568604 
	C2110.283447,3271.765869 2086.042480,3275.812500 2061.166748,3275.760498 
	C2023.864624,3275.682373 1986.562256,3275.740234 1949.260010,3275.740479 
	C1943.330566,3275.740479 1937.401001,3275.740479 1932.313843,3275.740479 
	C1926.365234,3268.850586 1928.407227,3261.902588 1928.389160,3255.515137 
	C1928.229126,3198.896240 1928.298584,3142.276367 1928.298584,3085.656982 
	C1928.298584,3046.356445 1928.296387,3007.055664 1928.295044,2967.755127 
	C1928.294800,2961.117920 1928.294922,2954.480957 1928.294922,2946.898193 
	C1932.648560,2945.925537 1936.319458,2944.405518 1939.996094,2944.390869 
	C1982.626587,2944.223633 2025.277588,2943.527588 2067.879395,2944.644531 
	C2085.685059,2945.111816 2103.386475,2949.558350 2122.729004,2952.568604 
M2145.463867,3133.968506 
	C2149.024170,3122.254150 2148.944824,3110.257080 2147.635254,3098.302979 
	C2144.765137,3072.104248 2132.413330,3051.677490 2109.198486,3038.669678 
	C2098.099609,3032.450684 2086.015137,3028.417969 2073.160400,3027.827393 
	C2059.860840,3027.216064 2046.537720,3027.000488 2033.222778,3026.906494 
	C2029.467896,3026.879883 2025.705933,3027.888428 2020.748535,3028.592285 
	C2020.601074,3042.898438 2020.408569,3056.100586 2020.344604,3069.303467 
	C2020.276733,3083.296631 2020.331909,3097.290039 2020.332153,3111.283447 
	C2020.332520,3124.610596 2020.180786,3137.939697 2020.372803,3151.264160 
	C2020.571411,3165.048828 2019.414673,3178.928711 2021.402588,3193.451416 
	C2045.969604,3196.216553 2069.038574,3195.398926 2091.605957,3189.042236 
	C2118.505859,3181.464600 2136.972168,3164.686523 2145.463867,3133.968506 
z"/>
<path fill="#008ADB" opacity="1.000000" stroke="none" 
	d="
M3428.000244,3145.213623 
	C3400.819580,3145.440186 3375.614258,3144.711670 3349.305420,3145.724609 
	C3346.503662,3162.576660 3347.737793,3178.163574 3348.406982,3194.747803 
	C3360.232910,3197.487305 3371.497314,3195.930908 3382.599121,3196.199951 
	C3393.916260,3196.474121 3405.245117,3196.260254 3416.568848,3196.260254 
	C3428.558594,3196.260010 3440.548584,3196.260010 3452.538330,3196.260498 
	C3463.862061,3196.261230 3475.185791,3196.263184 3486.509521,3196.263672 
	C3497.790771,3196.264404 3509.072021,3196.263916 3520.809082,3196.263916 
	C3526.129150,3209.897461 3523.188477,3223.246582 3523.539551,3236.233398 
	C3523.875732,3248.678467 3524.636963,3261.269043 3522.661621,3274.565918 
	C3518.372559,3275.025879 3515.200195,3275.661133 3512.027100,3275.663330 
	C3427.542969,3275.717285 3343.059082,3275.706299 3258.429932,3275.706299 
	C3254.204590,3267.711426 3255.725586,3260.276367 3255.714111,3253.213867 
	C3255.584961,3174.614258 3255.632324,3096.014160 3255.632568,3017.414307 
	C3255.632568,3000.095703 3255.633301,2982.777100 3255.633301,2965.458496 
	C3255.633545,2959.493408 3255.633545,2953.528320 3255.633545,2946.657959 
	C3260.134766,2945.760742 3263.841553,2944.382080 3267.550537,2944.376465 
	C3348.148438,2944.252686 3428.746582,2944.270752 3509.344727,2944.322266 
	C3512.538330,2944.324219 3515.731445,2944.922607 3518.577148,2945.208252 
	C3521.826660,2960.621338 3522.303711,2998.317627 3519.708496,3019.499512 
	C3514.999023,3024.600830 3508.648926,3022.714600 3502.952393,3022.735840 
	C3458.324219,3022.902100 3413.695068,3022.788086 3369.066406,3022.878662 
	C3362.596191,3022.891846 3356.126953,3023.532959 3348.433838,3023.949463 
	C3347.320312,3040.188232 3347.363770,3055.132568 3348.387695,3071.343750 
	C3362.029297,3073.064697 3374.586670,3072.043945 3387.058350,3072.219238 
	C3400.377930,3072.406494 3413.701904,3072.260254 3427.023926,3072.260254 
	C3439.679932,3072.260254 3452.335938,3072.217285 3464.991699,3072.273926 
	C3477.517822,3072.330078 3490.043213,3072.487305 3502.146484,3072.596436 
	C3506.030762,3088.498047 3506.380859,3123.461670 3502.981201,3143.936523 
	C3478.905273,3146.631836 3454.404785,3144.566162 3428.000244,3145.213623 
z"/>
<path fill="#008ADB" opacity="1.000000" stroke="none" 
	d="
M2266.790039,3136.813721 
	C2252.514160,3049.835938 2311.425293,2960.413086 2409.769531,2947.451660 
	C2463.392822,2940.384277 2511.822021,2952.184326 2552.705078,2988.299805 
	C2594.635254,3025.340820 2611.756836,3073.139160 2605.811768,3128.114014 
	C2595.378906,3224.583252 2513.212158,3276.172119 2437.822510,3275.930420 
	C2407.907471,3275.834717 2379.484619,3270.386719 2353.173340,3256.468018 
	C2305.496826,3231.247559 2276.234131,3192.104980 2266.790039,3136.813721 
M2513.961670,3089.540771 
	C2511.366455,3078.372559 2506.654541,3068.129150 2500.081787,3058.786133 
	C2465.614258,3009.790039 2390.392822,3015.554443 2364.785889,3069.570068 
	C2351.096191,3098.448242 2351.697754,3127.807373 2367.859619,3155.767822 
	C2384.883301,3185.218994 2411.494629,3198.701416 2444.840576,3195.181152 
	C2477.401611,3191.743896 2499.736084,3173.053223 2511.147949,3142.062256 
	C2517.048096,3126.039062 2517.532959,3109.531738 2513.961670,3089.540771 
z"/>
<path fill="#008ADB" opacity="1.000000" stroke="none" 
	d="
M1550.821045,3277.252441 
	C1525.083740,3277.186035 1501.203857,3277.419189 1477.529785,3277.078857 
	C1466.191406,3258.322021 1462.404663,3237.489746 1451.161743,3219.549805 
	C1409.872681,3219.549805 1368.718384,3219.549805 1326.176636,3219.549805 
	C1316.732422,3237.501709 1311.302612,3257.442871 1302.714111,3275.259766 
	C1284.174438,3278.115479 1224.932983,3277.913574 1208.815796,3275.104492 
	C1208.544312,3273.908447 1207.702759,3272.471436 1208.089478,3271.549316 
	C1253.590210,3162.992432 1299.182007,3054.473877 1344.487183,2946.623535 
	C1360.219971,2943.708252 1402.881226,2943.106689 1434.201904,2945.228271 
	C1445.255127,2965.732910 1453.179565,2988.269531 1462.760498,3010.035400 
	C1472.406982,3031.950195 1481.484863,3054.115479 1490.803589,3076.174561 
	C1500.121094,3098.231201 1509.429932,3120.291504 1518.739258,3142.351562 
	C1528.051880,3164.418701 1537.565674,3186.404053 1546.612305,3208.579590 
	C1555.548584,3230.484863 1565.784668,3251.906494 1574.443237,3276.149658 
	C1565.631714,3276.596436 1559.158447,3276.924561 1550.821045,3277.252441 
M1397.403809,3146.981934 
	C1405.782837,3146.522217 1414.383423,3148.200195 1424.746094,3144.706543 
	C1413.412354,3115.387451 1402.895996,3086.958496 1390.737549,3058.286133 
	C1388.626099,3060.509521 1386.757935,3061.658936 1386.095459,3063.296387 
	C1375.865601,3088.581299 1365.755493,3113.914551 1355.767822,3139.296143 
	C1355.116333,3140.951660 1355.683105,3143.086914 1355.683105,3146.493164 
	C1368.644165,3147.370117 1381.188354,3146.824463 1397.403809,3146.981934 
z"/>
<path fill="#008ADB" opacity="1.000000" stroke="none" 
	d="
M2931.701904,3119.783447 
	C2932.125977,3137.104492 2931.164307,3152.317383 2928.216064,3167.460449 
	C2917.616699,3221.901123 2886.124023,3257.055420 2832.036865,3270.342285 
	C2796.591064,3279.050049 2760.701904,3279.055420 2725.236572,3269.806885 
	C2676.314697,3257.049561 2645.536377,3225.833008 2634.047852,3176.588135 
	C2630.742676,3162.420410 2628.719238,3147.635010 2628.566162,3133.106689 
	C2627.954102,3075.143799 2628.296631,3017.170654 2628.340820,2959.201172 
	C2628.343994,2955.265625 2628.800781,2951.330566 2629.101074,2946.525635 
	C2644.286865,2942.204102 2659.545898,2944.754395 2674.554443,2944.392334 
	C2689.041016,2944.042969 2703.598633,2943.700439 2719.301270,2945.034180 
	C2719.695068,2952.624512 2720.311035,2959.094482 2720.322021,2965.565186 
	C2720.405029,3014.206055 2720.150879,3062.848877 2720.517822,3111.486816 
	C2720.613037,3124.072754 2721.472656,3136.846436 2723.806396,3149.188477 
	C2733.822754,3202.163086 2794.831299,3202.869873 2819.837646,3181.283447 
	C2832.209229,3170.604004 2837.001465,3156.218750 2839.124512,3140.742188 
	C2839.934082,3134.842773 2839.620605,3128.773193 2839.624268,3122.781250 
	C2839.655762,3071.475098 2839.642822,3020.168701 2839.642822,2968.862549 
	C2839.642822,2961.617188 2839.642822,2954.372070 2839.642822,2947.524170 
	C2854.369385,2943.423096 2911.092285,2943.025879 2930.983643,2946.796143 
	C2932.507080,2965.549072 2931.471191,2984.743408 2931.659424,3003.881836 
	C2931.843018,3022.536621 2931.702148,3041.195068 2931.702393,3059.851807 
	C2931.702637,3079.175049 2931.701904,3098.498047 2931.701904,3119.783447 
z"/>
<path fill="#008ADB" opacity="1.000000" stroke="none" 
	d="
M2979.537598,3191.532715 
	C2987.773926,3181.882080 2995.120361,3173.342773 3003.156494,3164.001953 
	C3009.738525,3168.219727 3015.775879,3172.098877 3021.823486,3175.961914 
	C3049.537354,3193.664795 3079.698975,3202.552246 3112.703125,3201.077393 
	C3120.056885,3200.749023 3127.290039,3199.912842 3133.713135,3195.684814 
	C3146.169434,3187.485596 3146.903564,3172.742920 3134.601074,3164.404785 
	C3129.196533,3160.741943 3122.833252,3158.065674 3116.529297,3156.242676 
	C3101.203857,3151.810303 3085.673828,3148.078369 3070.197266,3144.178467 
	C3050.793457,3139.288574 3031.802734,3133.275879 3014.079834,3123.794678 
	C2979.759033,3105.433594 2964.527100,3075.015625 2969.349609,3035.631592 
	C2974.735596,2991.642578 3003.204590,2959.711670 3049.477539,2949.458984 
	C3109.298584,2936.205078 3165.903809,2945.501221 3217.152344,2980.750977 
	C3219.313721,2982.237549 3221.169434,2984.168701 3223.050537,2985.791748 
	C3218.355957,2998.507568 3195.556885,3031.676270 3179.883301,3048.497559 
	C3174.398438,3045.550537 3168.605225,3042.552979 3162.920410,3039.362305 
	C3141.713135,3027.459717 3119.245605,3019.711426 3094.739502,3019.017090 
	C3086.095703,3018.772217 3077.462158,3019.052002 3069.564697,3023.672363 
	C3063.273193,3027.353271 3059.773438,3032.300049 3059.761719,3039.780273 
	C3059.752686,3045.610840 3061.793457,3050.653809 3066.576904,3053.449707 
	C3073.389404,3057.431396 3080.536865,3061.345215 3088.053223,3063.513916 
	C3104.656250,3068.304199 3121.735107,3071.451416 3138.323486,3076.285645 
	C3152.329834,3080.367676 3166.320801,3085.001221 3179.562744,3091.046875 
	C3189.724854,3095.686768 3199.447266,3102.018799 3208.053711,3109.175537 
	C3222.986816,3121.593262 3231.441650,3138.150146 3232.812012,3157.666016 
	C3233.837402,3172.273438 3234.277832,3186.989502 3229.980957,3201.303223 
	C3221.854980,3228.372070 3204.526611,3247.582764 3179.551270,3260.276367 
	C3163.908936,3268.226318 3147.139648,3272.836914 3129.898438,3274.501953 
	C3071.637207,3280.128174 3017.283691,3268.850830 2968.715820,3234.792969 
	C2963.913574,3231.425781 2959.727783,3227.179199 2954.231201,3222.460938 
	C2962.791748,3212.007324 2970.719727,3202.325684 2979.537598,3191.532715 
z"/>
<path fill="#008BDC" opacity="1.000000" stroke="none" 
	d="
M928.315674,3231.904785 
	C928.315857,3135.377441 928.315857,3040.838135 928.315857,2945.302979 
	C944.274170,2940.748291 959.524170,2943.339600 974.495056,2942.922119 
	C989.047607,2942.516113 1003.625549,2943.021729 1018.055603,2943.126221 
	C1022.939758,2950.791992 1021.100952,2958.312744 1021.118103,2965.365479 
	C1021.284851,3034.006348 1021.200500,3102.647949 1021.250488,3171.289307 
	C1021.255737,3178.509277 1021.664124,3185.729004 1021.925293,3194.247314 
	C1027.978027,3194.793701 1033.044067,3195.634766 1038.112183,3195.647949 
	C1079.430054,3195.756592 1120.748413,3195.673096 1162.066284,3195.750244 
	C1168.567261,3195.762451 1175.067139,3196.289551 1181.246582,3196.564209 
	C1184.471069,3213.965576 1184.531860,3257.754395 1181.380371,3275.800293 
	C1177.923950,3276.229736 1174.127075,3277.011963 1170.309692,3277.129639 
	C1098.310303,3279.346924 947.728577,3278.080078 929.752502,3274.998535 
	C926.856506,3261.615723 928.917603,3247.672607 928.315674,3231.904785 
z"/>
<path fill="#22A6F2" opacity="1.000000" stroke="none" 
	d="
M2038.462158,2047.894409 
	C2038.059448,2044.640625 2037.306396,2041.386719 2037.306274,2038.132935 
	C2037.304443,1986.659912 2037.399170,1935.187012 2039.244385,1881.728760 
	C2046.872559,1878.885010 2050.023926,1874.742920 2053.158691,1870.255981 
	C2058.101562,1863.180054 2063.107666,1856.103638 2068.647705,1849.497437 
	C2086.718018,1827.949585 2110.747314,1815.223267 2136.162842,1804.645996 
	C2156.109131,1796.344482 2177.383301,1793.740479 2198.509033,1792.570679 
	C2210.817871,1791.889160 2223.492676,1795.537720 2235.831543,1798.070435 
	C2291.136230,1809.422119 2329.218262,1843.557251 2357.251221,1890.731812 
	C2358.945068,1893.582031 2360.349609,1896.637695 2361.592041,1899.717407 
	C2380.584717,1946.801147 2382.951416,1994.262573 2362.584717,2041.376343 
	C2349.715088,2071.147217 2331.350098,2097.165527 2302.637451,2114.112305 
	C2292.909424,2119.854004 2282.822754,2125.147949 2272.455078,2129.613770 
	C2250.266846,2139.170898 2227.121338,2145.682129 2202.740723,2143.754639 
	C2178.139404,2141.810303 2153.967773,2137.189453 2131.619385,2125.809082 
	C2100.893555,2110.162598 2074.213867,2089.764648 2055.035645,2060.586426 
	C2050.954834,2054.377686 2047.105591,2048.058105 2038.462158,2047.894409 
M2329.182373,2018.651733 
	C2338.113281,1995.265625 2341.849854,1971.773071 2336.382812,1946.524048 
	C2328.073975,1908.150269 2308.613525,1878.101318 2276.212646,1856.081909 
	C2237.628662,1829.860596 2195.861572,1824.510132 2152.381836,1839.568848 
	C2106.746094,1855.374390 2079.835938,1888.948486 2067.602295,1935.352905 
	C2062.114746,1956.167480 2064.696777,1976.207642 2069.097900,1996.537720 
	C2077.821289,2036.833862 2101.309082,2066.216553 2136.623291,2086.085693 
	C2166.666260,2102.989014 2198.725830,2107.774902 2233.116455,2101.166748 
	C2258.348877,2096.318359 2279.798096,2085.426025 2297.685303,2067.901123 
	C2310.994873,2054.861328 2322.229492,2039.807739 2329.182373,2018.651733 
z"/>
<path fill="#189EEB" opacity="1.000000" stroke="none" 
	d="
M2038.447632,2159.901611 
	C2038.112671,2143.799072 2037.777832,2127.696533 2039.232178,2109.946289 
	C2053.986084,2112.802490 2063.066650,2122.966797 2073.020508,2131.439209 
	C2110.713379,2163.521484 2155.132324,2176.630371 2203.354004,2179.998535 
	C2216.785645,2180.937012 2229.802246,2178.110352 2242.964111,2176.188232 
	C2272.526855,2171.870605 2299.507568,2160.926025 2323.729736,2143.853027 
	C2336.692139,2134.716064 2348.935059,2124.222900 2360.055420,2112.917969 
	C2368.354980,2104.480713 2374.292236,2093.730957 2381.358154,2084.067139 
	C2395.793701,2064.324951 2402.466309,2041.435181 2408.687256,2018.243042 
	C2413.446045,2000.501587 2411.186035,1982.510010 2412.064453,1964.623413 
	C2413.515625,1935.065796 2404.547363,1907.462524 2392.007324,1881.995850 
	C2378.619629,1854.807739 2361.452637,1829.884277 2336.921875,1809.702148 
	C2309.930664,1787.496094 2280.458008,1772.591431 2247.218994,1763.860840 
	C2240.786865,1762.171387 2234.245605,1760.900391 2227.775635,1759.349854 
	C2223.465332,1758.317017 2221.163086,1755.169678 2219.693848,1751.245972 
	C2233.075684,1744.108276 2246.483154,1737.018555 2259.825928,1729.808716 
	C2265.005127,1727.010132 2269.742676,1727.526245 2274.898682,1730.205444 
	C2287.253418,1736.625488 2299.841797,1742.593994 2312.284912,1748.846436 
	C2330.057617,1757.776855 2347.784668,1766.797852 2366.865723,1777.922241 
	C2369.420654,1783.117188 2370.015869,1786.661133 2371.964600,1789.142090 
	C2383.867920,1804.296265 2396.188477,1819.122803 2408.126465,1834.250610 
	C2412.218994,1839.436646 2416.216309,1844.864746 2419.220215,1850.714722 
	C2433.585938,1878.691650 2443.742676,1908.024048 2449.171143,1939.183838 
	C2452.877930,1960.463013 2452.884766,1981.643555 2450.915527,2002.807861 
	C2448.105225,2033.011108 2437.282959,2060.999023 2423.886475,2087.949951 
	C2419.471924,2096.830811 2414.051025,2105.257568 2408.590576,2113.563232 
	C2395.280273,2133.809082 2376.316650,2148.868896 2359.670166,2166.050049 
	C2357.392334,2168.401123 2354.456055,2170.171143 2351.661133,2171.953613 
	C2342.685547,2177.678467 2333.751953,2183.485596 2324.569580,2188.864258 
	C2318.271729,2192.553223 2311.856934,2196.336426 2305.029785,2198.779297 
	C2268.409180,2211.884033 2231.020996,2219.095703 2191.670654,2216.452393 
	C2164.704590,2214.640869 2139.403076,2207.530518 2114.079590,2199.236328 
	C2095.424561,2193.126221 2079.389648,2182.524170 2063.405273,2171.656494 
	C2055.722656,2166.433105 2048.334961,2160.486084 2038.447632,2159.901611 
z"/>
<path fill="#1EA2EF" opacity="1.000000" stroke="none" 
	d="
M2218.261230,1751.477295 
	C2221.163086,1755.169678 2223.465332,1758.317017 2227.775635,1759.349854 
	C2234.245605,1760.900391 2240.786865,1762.171387 2247.218994,1763.860840 
	C2280.458008,1772.591431 2309.930664,1787.496094 2336.921875,1809.702148 
	C2361.452637,1829.884277 2378.619629,1854.807739 2392.007324,1881.995850 
	C2404.547363,1907.462524 2413.515625,1935.065796 2412.064453,1964.623413 
	C2411.186035,1982.510010 2413.446045,2000.501587 2408.687256,2018.243042 
	C2402.466309,2041.435181 2395.793701,2064.324951 2381.358154,2084.067139 
	C2374.292236,2093.730957 2368.354980,2104.480713 2360.055420,2112.917969 
	C2348.935059,2124.222900 2336.692139,2134.716064 2323.729736,2143.853027 
	C2299.507568,2160.926025 2272.526855,2171.870605 2242.964111,2176.188232 
	C2229.802246,2178.110352 2216.785645,2180.937012 2203.354004,2179.998535 
	C2155.132324,2176.630371 2110.713379,2163.521484 2073.020508,2131.439209 
	C2063.066650,2122.966797 2053.986084,2112.802490 2039.740723,2108.156982 
	C2038.119507,2089.181885 2037.778809,2070.348145 2037.950195,2049.704590 
	C2047.105591,2048.058105 2050.954834,2054.377686 2055.035645,2060.586426 
	C2074.213867,2089.764648 2100.893555,2110.162598 2131.619385,2125.809082 
	C2153.967773,2137.189453 2178.139404,2141.810303 2202.740723,2143.754639 
	C2227.121338,2145.682129 2250.266846,2139.170898 2272.455078,2129.613770 
	C2282.822754,2125.147949 2292.909424,2119.854004 2302.637451,2114.112305 
	C2331.350098,2097.165527 2349.715088,2071.147217 2362.584717,2041.376343 
	C2382.951416,1994.262573 2380.584717,1946.801147 2361.592041,1899.717407 
	C2360.349609,1896.637695 2358.945068,1893.582031 2357.251221,1890.731812 
	C2329.218262,1843.557251 2291.136230,1809.422119 2235.831543,1798.070435 
	C2223.492676,1795.537720 2210.817871,1791.889160 2198.509033,1792.570679 
	C2177.383301,1793.740479 2156.109131,1796.344482 2136.162842,1804.645996 
	C2110.747314,1815.223267 2086.718018,1827.949585 2068.647705,1849.497437 
	C2063.107666,1856.103638 2058.101562,1863.180054 2053.158691,1870.255981 
	C2050.023926,1874.742920 2046.872559,1878.885010 2039.738037,1879.920776 
	C2037.918335,1867.559937 2037.377930,1855.021729 2036.872803,1843.304810 
	C2050.676025,1833.158203 2132.259766,1791.751587 2218.261230,1751.477295 
z"/>
<path fill="#0F97E6" opacity="1.000000" stroke="none" 
	d="
M2347.902100,2282.995117 
	C2343.943604,2283.218018 2339.985352,2283.635254 2336.026855,2283.635254 
	C2250.617676,2283.634521 2165.208496,2283.587158 2077.570312,2281.991943 
	C2072.257080,2272.643799 2065.876709,2268.448730 2058.490479,2265.787842 
	C2051.897217,2263.412354 2045.043579,2261.760010 2038.304932,2259.788574 
	C2038.024780,2241.067139 2037.744629,2222.345703 2039.302979,2201.965576 
	C2050.845703,2204.579834 2060.692139,2208.560547 2070.226074,2213.184570 
	C2092.304199,2223.892822 2113.968262,2234.839844 2138.335938,2240.670654 
	C2162.433350,2246.437012 2186.911377,2247.675781 2211.143799,2251.329590 
	C2218.671143,2252.464355 2226.802246,2248.791016 2234.717041,2248.310303 
	C2262.180420,2246.643311 2288.254395,2240.186523 2313.824219,2229.769043 
	C2366.599121,2208.268311 2408.603516,2174.199219 2439.558594,2126.479980 
	C2444.249268,2119.249023 2447.509766,2111.073242 2452.354736,2103.963135 
	C2466.542725,2083.141846 2473.138916,2059.139648 2478.547363,2035.385986 
	C2486.711426,1999.530884 2486.740723,1962.974365 2479.569580,1926.558228 
	C2472.568359,1891.005127 2461.003906,1857.329956 2441.800781,1826.401611 
	C2439.069092,1822.002075 2437.959229,1816.595581 2436.098877,1811.655151 
	C2457.112549,1819.663086 2476.629150,1830.626465 2496.940430,1841.251465 
	C2496.940430,1944.063721 2496.940430,2046.160889 2495.228027,2150.429443 
	C2484.661621,2155.416748 2479.802490,2162.514404 2474.947266,2169.713867 
	C2456.997559,2196.330078 2434.114502,2218.360107 2408.912109,2237.784668 
	C2395.375977,2248.217773 2380.124268,2256.477539 2365.371582,2265.256104 
	C2357.871582,2269.718994 2350.128174,2273.521484 2347.902100,2282.995117 
z"/>
<path fill="#139BE9" opacity="1.000000" stroke="none" 
	d="
M2435.153320,1810.562988 
	C2437.959229,1816.595581 2439.069092,1822.002075 2441.800781,1826.401611 
	C2461.003906,1857.329956 2472.568359,1891.005127 2479.569580,1926.558228 
	C2486.740723,1962.974365 2486.711426,1999.530884 2478.547363,2035.385986 
	C2473.138916,2059.139648 2466.542725,2083.141846 2452.354736,2103.963135 
	C2447.509766,2111.073242 2444.249268,2119.249023 2439.558594,2126.479980 
	C2408.603516,2174.199219 2366.599121,2208.268311 2313.824219,2229.769043 
	C2288.254395,2240.186523 2262.180420,2246.643311 2234.717041,2248.310303 
	C2226.802246,2248.791016 2218.671143,2252.464355 2211.143799,2251.329590 
	C2186.911377,2247.675781 2162.433350,2246.437012 2138.335938,2240.670654 
	C2113.968262,2234.839844 2092.304199,2223.892822 2070.226074,2213.184570 
	C2060.692139,2208.560547 2050.845703,2204.579834 2039.807373,2200.165771 
	C2038.132324,2187.828857 2037.791138,2175.633057 2037.948730,2161.669434 
	C2048.334961,2160.486084 2055.722656,2166.433105 2063.405273,2171.656494 
	C2079.389648,2182.524170 2095.424561,2193.126221 2114.079590,2199.236328 
	C2139.403076,2207.530518 2164.704590,2214.640869 2191.670654,2216.452393 
	C2231.020996,2219.095703 2268.409180,2211.884033 2305.029785,2198.779297 
	C2311.856934,2196.336426 2318.271729,2192.553223 2324.569580,2188.864258 
	C2333.751953,2183.485596 2342.685547,2177.678467 2351.661133,2171.953613 
	C2354.456055,2170.171143 2357.392334,2168.401123 2359.670166,2166.050049 
	C2376.316650,2148.868896 2395.280273,2133.809082 2408.590576,2113.563232 
	C2414.051025,2105.257568 2419.471924,2096.830811 2423.886475,2087.949951 
	C2437.282959,2060.999023 2448.105225,2033.011108 2450.915527,2002.807861 
	C2452.884766,1981.643555 2452.877930,1960.463013 2449.171143,1939.183838 
	C2443.742676,1908.024048 2433.585938,1878.691650 2419.220215,1850.714722 
	C2416.216309,1844.864746 2412.218994,1839.436646 2408.126465,1834.250610 
	C2396.188477,1819.122803 2383.867920,1804.296265 2371.964600,1789.142090 
	C2370.015869,1786.661133 2369.420654,1783.117188 2368.063965,1778.711914 
	C2384.178955,1785.707153 2400.365234,1794.183838 2416.715576,1802.332397 
	C2422.335938,1805.133545 2428.364990,1807.114990 2435.153320,1810.562988 
z"/>
<path fill="#098BD6" opacity="1.000000" stroke="none" 
	d="
M2349.755859,2283.337158 
	C2350.128174,2273.521484 2357.871582,2269.718994 2365.371582,2265.256104 
	C2380.124268,2256.477539 2395.375977,2248.217773 2408.912109,2237.784668 
	C2434.114502,2218.360107 2456.997559,2196.330078 2474.947266,2169.713867 
	C2479.802490,2162.514404 2484.661621,2155.416748 2494.864258,2152.270020 
	C2496.602539,2157.199951 2497.314697,2162.459961 2497.327637,2167.721680 
	C2497.405273,2199.560791 2497.392822,2231.401123 2497.235596,2263.240234 
	C2497.203613,2269.718750 2498.543457,2276.477051 2494.132812,2283.679199 
	C2447.020264,2283.679199 2399.314941,2283.679199 2349.755859,2283.337158 
z"/>
<path fill="#098BD6" opacity="1.000000" stroke="none" 
	d="
M2037.810303,2261.440430 
	C2045.043579,2261.760010 2051.897217,2263.412354 2058.490479,2265.787842 
	C2065.876709,2268.448730 2072.257080,2272.643799 2075.720215,2281.715332 
	C2063.869141,2284.261963 2051.676514,2284.271973 2039.616821,2283.011963 
	C2035.705566,2276.007568 2037.341431,2269.451172 2037.810303,2261.440430 
z"/>
<path fill="#000203" opacity="1.000000" stroke="none" 
	d="
M2145.051025,3135.564697 
	C2136.972168,3164.686523 2118.505859,3181.464600 2091.605957,3189.042236 
	C2069.038574,3195.398926 2045.969604,3196.216553 2021.402588,3193.451416 
	C2019.414673,3178.928711 2020.571411,3165.048828 2020.372803,3151.264160 
	C2020.180786,3137.939697 2020.332520,3124.610596 2020.332153,3111.283447 
	C2020.331909,3097.290039 2020.276733,3083.296631 2020.344604,3069.303467 
	C2020.408569,3056.100586 2020.601074,3042.898438 2020.748535,3028.592285 
	C2025.705933,3027.888428 2029.467896,3026.879883 2033.222778,3026.906494 
	C2046.537720,3027.000488 2059.860840,3027.216064 2073.160400,3027.827393 
	C2086.015137,3028.417969 2098.099609,3032.450684 2109.198486,3038.669678 
	C2132.413330,3051.677490 2144.765137,3072.104248 2147.635254,3098.302979 
	C2148.944824,3110.257080 2149.024170,3122.254150 2145.051025,3135.564697 
z"/>
<path fill="#000203" opacity="1.000000" stroke="none" 
	d="
M2514.384033,3091.183350 
	C2517.532959,3109.531738 2517.048096,3126.039062 2511.147949,3142.062256 
	C2499.736084,3173.053223 2477.401611,3191.743896 2444.840576,3195.181152 
	C2411.494629,3198.701416 2384.883301,3185.218994 2367.859619,3155.767822 
	C2351.697754,3127.807373 2351.096191,3098.448242 2364.785889,3069.570068 
	C2390.392822,3015.554443 2465.614258,3009.790039 2500.081787,3058.786133 
	C2506.654541,3068.129150 2511.366455,3078.372559 2514.384033,3091.183350 
z"/>
<path fill="#00090F" opacity="1.000000" stroke="none" 
	d="
M1395.549561,3146.981445 
	C1381.188354,3146.824463 1368.644165,3147.370117 1355.683105,3146.493164 
	C1355.683105,3143.086914 1355.116333,3140.951660 1355.767822,3139.296143 
	C1365.755493,3113.914551 1375.865601,3088.581299 1386.095459,3063.296387 
	C1386.757935,3061.658936 1388.626099,3060.509521 1390.737549,3058.286133 
	C1402.895996,3086.958496 1413.412354,3115.387451 1424.746094,3144.706543 
	C1414.383423,3148.200195 1405.782837,3146.522217 1395.549561,3146.981445 
z"/>
<path fill="#28AAF6" opacity="1.000000" stroke="none" 
	d="
M2328.664307,2020.120605 
	C2322.229492,2039.807739 2310.994873,2054.861328 2297.685303,2067.901123 
	C2279.798096,2085.426025 2258.348877,2096.318359 2233.116455,2101.166748 
	C2198.725830,2107.774902 2166.666260,2102.989014 2136.623291,2086.085693 
	C2101.309082,2066.216553 2077.821289,2036.833862 2069.097900,1996.537720 
	C2064.696777,1976.207642 2062.114746,1956.167480 2067.602295,1935.352905 
	C2079.835938,1888.948486 2106.746094,1855.374390 2152.381836,1839.568848 
	C2195.861572,1824.510132 2237.628662,1829.860596 2276.212646,1856.081909 
	C2308.613525,1878.101318 2328.073975,1908.150269 2336.382812,1946.524048 
	C2341.849854,1971.773071 2338.113281,1995.265625 2328.664307,2020.120605 
M2152.769043,2033.762939 
	C2162.469482,2038.053467 2172.221436,2042.231812 2181.858643,2046.659790 
	C2197.412109,2053.806152 2213.096436,2052.495117 2228.462158,2046.747437 
	C2244.125977,2040.887939 2258.760742,2033.239990 2268.765869,2018.849731 
	C2290.009521,1988.294678 2289.927734,1953.094482 2269.454346,1921.950073 
	C2258.162598,1904.772583 2242.271240,1894.648926 2223.396973,1889.113647 
	C2196.846924,1881.327393 2187.370850,1882.644775 2163.796387,1894.116699 
	C2161.404053,1895.281006 2159.044434,1896.511841 2156.660400,1897.693726 
	C2136.560791,1907.658447 2125.332275,1925.279053 2121.253418,1945.891357 
	C2115.769775,1973.604004 2120.287842,2000.250122 2140.540527,2022.143555 
	C2143.696777,2025.555542 2147.131836,2028.709473 2152.769043,2033.762939 
z"/>
<path fill="#30B0FA" opacity="1.000000" stroke="none" 
	d="
M2151.603516,2032.872803 
	C2147.131836,2028.709473 2143.696777,2025.555542 2140.540527,2022.143555 
	C2120.287842,2000.250122 2115.769775,1973.604004 2121.253418,1945.891357 
	C2125.332275,1925.279053 2136.560791,1907.658447 2156.660400,1897.693726 
	C2159.044434,1896.511841 2161.404053,1895.281006 2163.796387,1894.116699 
	C2187.370850,1882.644775 2196.846924,1881.327393 2223.396973,1889.113647 
	C2242.271240,1894.648926 2258.162598,1904.772583 2269.454346,1921.950073 
	C2289.927734,1953.094482 2290.009521,1988.294678 2268.765869,2018.849731 
	C2258.760742,2033.239990 2244.125977,2040.887939 2228.462158,2046.747437 
	C2213.096436,2052.495117 2197.412109,2053.806152 2181.858643,2046.659790 
	C2172.221436,2042.231812 2162.469482,2038.053467 2151.603516,2032.872803 
z"/>
</svg>